<svg width="327" height="100" viewBox="0 0 327 100" fill="none" xmlns="http://www.w3.org/2000/svg">
<g clip-path="url(#clip0_1_20)">
<path d="M44.16 54.28L49.2 67.63L56.76 87.67L75.4 67.44L44.16 54.28Z" fill="#20B9F5"/>
<path d="M53.37 12.4L44.55 0L33.51 25.74L74.83 64.93L53.37 12.4Z" fill="#20B9F5"/>
<path d="M27.74 68.87L18.29 88.89L45.41 100L55.88 88.63L48.25 68.42L27.74 68.87Z" fill="#20B9F5"/>
<path d="M26.84 68.05L33.99 52.91L35.38 49.96L35.78 49.11L42.18 35.57L32.93 26.8L32.75 26.63L11.89 40.25L0 68.91L6.1 83.89L17.22 88.44L26.84 68.05Z" fill="#20B9F5"/>
<path d="M43.06 36.41L36.71 49.88L37.05 50.03L43.34 52.67L73.67 65.44L43.06 36.41Z" fill="#20B9F5"/>
<path d="M106.4 69C104.243 67.8319 102.484 66.0453 101.35 63.87C100.139 61.4978 99.5344 58.8628 99.59 56.2C99.5323 53.5434 100.137 50.9143 101.35 48.55C102.488 46.3824 104.246 44.6033 106.4 43.44C108.779 42.183 111.44 41.5564 114.13 41.62C115.96 41.6142 117.78 41.9012 119.52 42.47C121.076 42.9341 122.523 43.7023 123.78 44.73L121.48 50C119.4 48.4477 116.885 47.5873 114.29 47.54C113.304 47.4745 112.316 47.633 111.4 48.0036C110.484 48.3742 109.663 48.9473 109 49.68C107.767 51.1333 107.153 53.3 107.16 56.18C107.16 59.06 107.77 61.24 109 62.7C109.659 63.4475 110.48 64.0343 111.4 64.4156C112.32 64.797 113.316 64.9626 114.31 64.9C116.905 64.8527 119.42 63.9923 121.5 62.44L123.8 67.69C122.542 68.7379 121.087 69.5233 119.52 70C117.78 70.5688 115.96 70.8558 114.13 70.85C111.438 70.9043 108.776 70.2674 106.4 69Z" fill="#1E1E20"/>
<path d="M155.88 41.98H148.61V70.44H155.88V41.98Z" fill="#1E1E20"/>
<path d="M189.2 42H203C206.16 42 208.6 42.8 210.35 44.4C211.243 45.2531 211.943 46.2886 212.4 47.4362C212.857 48.5837 213.062 49.8163 213 51.05C213.067 52.2858 212.864 53.5212 212.407 54.6711C211.949 55.821 211.247 56.8578 210.35 57.71C208.303 59.4347 205.671 60.3049 203 60.14H196.66V70.44H189.2V42ZM202 54.56C203.083 54.6434 204.162 54.3463 205.05 53.72C205.4 53.382 205.671 52.9711 205.843 52.5165C206.016 52.062 206.087 51.5749 206.05 51.09C206.085 50.6037 206.014 50.1155 205.842 49.6595C205.669 49.2035 205.399 48.7908 205.05 48.45C204.171 47.8036 203.088 47.4948 202 47.58H196.66V54.58L202 54.56Z" fill="#1E1E20"/>
<path d="M218.56 42H232.33C235.49 42 237.93 42.8 239.68 44.4C240.574 45.2583 241.271 46.2995 241.725 47.4524C242.179 48.6054 242.379 49.8428 242.31 51.08C242.377 52.3158 242.174 53.5512 241.717 54.7011C241.259 55.851 240.557 56.8878 239.66 57.74C237.619 59.4598 234.995 60.3297 232.33 60.17H226V70.47H218.57L218.56 42ZM231.33 54.59C232.397 54.6616 233.456 54.3651 234.33 53.75C234.68 53.412 234.951 53.0011 235.123 52.5465C235.296 52.092 235.367 51.6049 235.33 51.12C235.365 50.6337 235.294 50.1455 235.122 49.6895C234.949 49.2335 234.679 48.8208 234.33 48.48C233.464 47.8451 232.401 47.5369 231.33 47.61H226V54.61L231.33 54.59Z" fill="#1E1E20"/>
<path d="M255.16 58.82H267.34V53.1H255.16V47.7H263.48C264.067 47.6991 264.642 47.5313 265.138 47.2161C265.634 46.901 266.03 46.4515 266.28 45.92L268.15 42H247.92V70.44H268.15V64.69H255.15L255.16 58.82Z" fill="#1E1E20"/>
<path d="M170.32 58.82H182.5V53.1H170.32V47.7H178.64C179.227 47.6991 179.802 47.5313 180.298 47.2161C180.794 46.901 181.19 46.4515 181.44 45.92L183.3 42H163.08V70.44H183.3V64.69H170.3L170.32 58.82Z" fill="#1E1E20"/>
<path d="M299.65 70.44H291.5L286.57 61.35C286.275 60.8377 285.842 60.4182 285.32 60.139C284.799 59.8598 284.21 59.732 283.62 59.77H281.36V70.44H274.05V42H287.62C291.07 42 293.62 42.74 295.39 44.24C296.279 45.0519 296.975 46.0527 297.427 47.1688C297.879 48.285 298.074 49.4882 298 50.69C298.059 52.6645 297.43 54.5982 296.22 56.16C294.951 57.7085 293.184 58.7688 291.22 59.16C292.071 59.3622 292.866 59.7541 293.545 60.3064C294.224 60.8588 294.769 61.5574 295.14 62.35L299.65 70.44ZM289.98 53.44C290.353 53.146 290.647 52.7632 290.834 52.3264C291.021 51.8896 291.095 51.4129 291.05 50.94C291.095 50.4587 291.023 49.9737 290.84 49.5262C290.657 49.0788 290.369 48.6821 290 48.37C288.933 47.7498 287.7 47.4739 286.47 47.58H281.3V54.2H286.47C287.697 54.3038 288.927 54.0355 290 53.43L289.98 53.44Z" fill="#1E1E20"/>
<path d="M308.38 70C306.573 69.5603 304.862 68.7944 303.33 67.74L305.63 62.49C306.998 63.3558 308.478 64.0288 310.03 64.49C311.565 64.9462 313.158 65.1786 314.76 65.18C316.025 65.2455 317.288 65.0161 318.45 64.51C318.824 64.3558 319.144 64.0957 319.371 63.7616C319.599 63.4275 319.723 63.0341 319.73 62.63C319.723 62.2543 319.611 61.8881 319.406 61.5733C319.201 61.2584 318.911 61.0078 318.57 60.85C317.181 60.1909 315.707 59.7298 314.19 59.48C312.027 59.0826 309.923 58.4105 307.93 57.48C306.634 56.8878 305.534 55.9371 304.76 54.74C304.123 53.5485 303.809 52.2107 303.85 50.86C303.829 49.1724 304.347 47.5222 305.33 46.15C306.395 44.7035 307.833 43.5733 309.49 42.88C311.437 42.0568 313.536 41.6513 315.65 41.69C317.682 41.681 319.704 41.9743 321.65 42.56C323.291 42.9906 324.826 43.753 326.16 44.8L323.84 50C321.462 48.2888 318.61 47.3592 315.68 47.34C314.529 47.2856 313.385 47.5559 312.38 48.12C312.002 48.3214 311.686 48.6209 311.464 48.987C311.243 49.353 311.124 49.7721 311.12 50.2C311.1 50.6626 311.262 51.1145 311.57 51.46C312.043 51.8924 312.607 52.2136 313.22 52.4C314.392 52.8269 315.596 53.1613 316.82 53.4C318.929 53.7963 320.977 54.4688 322.91 55.4C324.191 56.0253 325.282 56.9816 326.07 58.17C326.712 59.3168 327.03 60.6165 326.99 61.93C327.041 63.2061 326.772 64.4746 326.208 65.6203C325.644 66.766 324.803 67.7525 323.76 68.49C321.613 70.0634 318.587 70.85 314.68 70.85C312.551 70.8519 310.432 70.566 308.38 70Z" fill="#1E1E20"/>
<path d="M148.61 53.04L145.81 58.94H136.99V70.44H129.72V41.98H136.99V53.04H148.61Z" fill="#1E1E20"/>
<path d="M148.61 53.04H145.81V58.94H148.61V53.04Z" fill="#1E1E20"/>
</g>
<defs>
<clipPath id="clip0_1_20">
<rect width="326.99" height="100" fill="white"/>
</clipPath>
</defs>
</svg>
